<?xml version="1.0" standalone="no"?>
<!DOCTYPE svg PUBLIC "-//W3C//DTD SVG 20010904//EN"
 "http://www.w3.org/TR/2001/REC-SVG-20010904/DTD/svg10.dtd">
<svg version="1.0" xmlns="http://www.w3.org/2000/svg"
 width="800.000000pt" height="800.000000pt" viewBox="0 0 800.000000 800.000000"
 preserveAspectRatio="xMidYMid meet">

<g transform="translate(0.000000,800.000000) scale(0.100000,-0.100000)"
fill="#000000" stroke="none">
<path d="M3810 7919 c-63 -5 -139 -13 -169 -19 -30 -5 -69 -10 -87 -10 -18 0
-36 -4 -39 -10 -3 -5 -14 -10 -23 -10 -10 0 -41 -27 -70 -60 -37 -41 -61 -60
-77 -60 -24 0 -85 -50 -85 -69 0 -6 -5 -11 -10 -11 -7 0 -10 -31 -9 -80 2 -77
1 -81 -27 -105 -16 -14 -34 -25 -41 -25 -6 0 -20 -15 -32 -32 -11 -18 -26 -42
-33 -53 -7 -11 -29 -39 -48 -62 -19 -23 -51 -63 -70 -88 -19 -25 -48 -60 -65
-78 -16 -18 -47 -58 -67 -88 -31 -46 -38 -64 -38 -105 0 -27 -11 -80 -25 -118
-27 -74 -32 -146 -14 -209 5 -21 17 -41 25 -44 8 -3 14 -16 14 -29 0 -13 8
-32 18 -42 22 -22 42 -67 42 -93 0 -11 5 -30 12 -42 7 -12 11 -47 9 -77 -2
-37 4 -76 18 -115 12 -33 21 -74 21 -92 0 -17 5 -35 10 -38 6 -4 10 13 10 45
0 42 3 51 16 48 35 -6 39 -33 22 -125 -9 -48 -21 -106 -27 -128 -24 -95 -18
-219 16 -293 8 -19 16 -66 17 -105 1 -40 5 -77 8 -83 4 -6 8 -30 9 -55 2 -62
28 -140 55 -166 13 -12 26 -34 30 -50 4 -15 10 -30 13 -33 18 -15 61 -92 61
-110 0 -24 8 -35 70 -99 25 -26 53 -62 62 -81 9 -19 36 -53 60 -76 140 -133
148 -141 148 -168 0 -24 -13 -42 -52 -74 -9 -8 -48 -25 -85 -39 -37 -13 -96
-35 -131 -48 -35 -13 -68 -28 -75 -33 -7 -5 -27 -13 -44 -17 -18 -3 -33 -11
-33 -15 0 -5 -19 -14 -42 -21 -40 -10 -95 -34 -256 -110 -35 -16 -77 -33 -95
-36 -34 -7 -83 -32 -133 -70 -17 -13 -38 -23 -47 -23 -10 0 -17 -8 -17 -20 0
-11 -7 -23 -15 -26 -8 -4 -15 -12 -15 -20 0 -8 -4 -14 -10 -14 -5 0 -10 -7
-10 -15 0 -8 -16 -39 -35 -69 -19 -30 -35 -64 -35 -75 0 -10 -4 -21 -9 -23 -5
-1 -21 -52 -34 -113 -19 -83 -26 -152 -31 -280 -3 -93 -8 -181 -11 -195 -9
-41 -5 -510 5 -585 12 -88 13 -182 2 -189 -5 -3 -12 -82 -15 -177 -4 -94 -12
-190 -18 -212 -6 -23 -17 -69 -26 -102 -8 -33 -20 -73 -28 -90 -22 -53 -48
-149 -52 -195 -8 -98 -11 -116 -21 -140 -5 -14 -15 -45 -22 -70 -7 -25 -16
-56 -21 -70 -12 -39 -20 -118 -23 -227 -2 -87 -5 -105 -33 -163 -17 -36 -34
-80 -38 -97 -4 -18 -10 -33 -15 -33 -14 0 -28 -54 -33 -125 l-4 -70 91 -55
c113 -68 381 -204 501 -254 222 -93 523 -184 760 -231 729 -142 1488 -76 2182
191 149 57 442 201 597 293 473 283 927 714 1235 1172 54 82 71 115 71 142 0
19 7 48 15 63 28 56 38 134 31 259 -7 115 -11 156 -35 325 -5 41 -10 143 -11
225 0 188 -13 296 -41 359 -12 28 -27 88 -35 135 -21 142 -62 212 -135 230
-26 7 -62 23 -80 37 -18 13 -38 24 -44 24 -7 0 -25 11 -41 25 -16 14 -35 25
-41 25 -7 0 -13 3 -13 8 0 4 -13 13 -29 20 -16 7 -41 24 -55 37 -15 14 -33 25
-41 25 -8 0 -18 6 -22 13 -4 8 -40 34 -79 59 -40 25 -75 51 -78 57 -4 6 -16
11 -26 11 -10 0 -25 6 -32 13 -21 20 -86 67 -93 67 -8 0 -104 64 -141 94 -18
14 -39 26 -47 26 -9 0 -19 5 -22 10 -3 6 -14 10 -23 10 -19 0 -105 41 -110 52
-2 4 -19 10 -38 14 -19 3 -34 10 -34 15 0 5 -6 9 -14 9 -7 0 -30 11 -50 25
-20 14 -44 25 -52 25 -8 0 -20 5 -27 10 -28 24 -89 60 -100 60 -7 0 -36 16
-64 35 -29 19 -56 35 -61 35 -5 0 -36 18 -68 40 -33 22 -64 40 -70 40 -6 0
-31 18 -56 39 -32 29 -58 68 -95 143 -72 146 -101 215 -118 281 -7 31 -16 61
-19 66 -5 7 -83 28 -173 46 -39 8 -41 24 -14 81 10 21 26 71 34 109 36 164 58
210 97 210 13 0 25 6 27 13 3 6 -1 12 -7 12 -7 0 -10 7 -6 16 3 8 2 12 -4 9
-13 -8 -12 1 1 48 6 21 15 35 20 31 7 -4 9 14 6 55 -3 34 -1 61 4 61 5 0 8 13
7 28 -1 15 1 33 6 40 4 7 2 12 -3 12 -16 0 -13 62 4 84 34 44 14 165 -33 201
-11 9 -11 17 0 49 18 54 35 56 48 5 7 -23 17 -52 24 -63 7 -12 19 -48 26 -81
l13 -60 15 70 c17 79 20 150 8 213 -11 54 7 57 25 5 l13 -38 7 40 c4 22 8 60
8 85 1 33 11 65 36 110 19 36 35 73 35 82 0 9 21 35 48 57 44 38 47 44 47 88
0 36 -8 59 -28 89 -16 23 -37 78 -48 122 -10 44 -33 113 -50 154 -16 40 -39
101 -50 135 -10 33 -26 74 -34 90 -8 15 -15 44 -15 64 0 25 -10 49 -32 79 -39
51 -45 60 -87 125 -18 28 -36 51 -42 51 -5 1 -13 2 -19 3 -5 0 -10 8 -10 16 0
9 -12 28 -27 43 -16 14 -35 37 -43 49 -23 32 -173 138 -178 124 -7 -20 -41
-12 -70 17 -16 15 -51 36 -78 46 -27 10 -56 25 -64 32 -54 46 -635 85 -940 63z
m99 -18 c12 -3 -37 -30 -56 -31 -12 0 -25 -4 -28 -10 -9 -14 -48 -12 -70 4
-18 13 -17 14 9 28 22 12 117 18 145 9z m-159 -119 c0 -13 -12 -22 -22 -16
-10 6 -1 24 13 24 5 0 9 -4 9 -8z m-20 -46 c0 -11 -19 -15 -25 -6 -3 5 1 10 9
10 9 0 16 -2 16 -4z m-17 -302 c27 -3 60 -1 75 5 20 8 41 8 82 -2 37 -8 87
-10 150 -5 92 6 398 0 412 -8 4 -2 10 1 13 7 10 15 87 1 102 -18 7 -9 18 -13
26 -10 17 6 152 -120 162 -152 3 -12 10 -19 15 -16 9 5 24 -12 25 -30 1 -5 4
-17 7 -25 3 -8 12 -35 19 -60 14 -50 39 -88 54 -83 11 3 35 -43 35 -68 0 -10
12 -27 28 -39 15 -12 27 -25 27 -28 1 -4 6 -17 13 -29 6 -12 9 -29 6 -37 -3
-9 -1 -16 6 -16 7 0 9 -8 5 -20 -4 -12 -2 -20 5 -20 6 0 8 -11 5 -27 -2 -15 0
-30 6 -34 12 -7 80 -159 72 -159 -3 0 1 -7 8 -16 8 -10 14 -45 16 -88 1 -39 6
-111 13 -161 22 -175 34 -405 21 -405 -5 0 -15 -31 -22 -70 -8 -46 -17 -70
-26 -70 -8 0 -13 -12 -13 -35 0 -23 -5 -35 -12 -34 -37 4 -41 -1 -35 -47 3
-33 1 -47 -9 -51 -8 -3 -14 -11 -14 -19 0 -17 -16 -18 -24 -1 -4 6 -4 -2 -1
-20 5 -36 -17 -111 -31 -103 -17 9 -15 -37 2 -54 22 -23 9 -34 -14 -13 -26 24
-32 21 -32 -13 0 -20 5 -30 15 -30 8 0 15 -5 15 -11 0 -5 -4 -7 -10 -4 -5 3
-10 -3 -10 -14 0 -47 -41 -93 -52 -59 -6 16 -68 -9 -68 -27 0 -14 -25 -27 -34
-18 -3 4 -6 15 -6 25 0 13 -8 18 -28 18 -28 0 -40 18 -65 93 -4 9 -15 17 -26
17 -11 0 -30 13 -42 30 -12 16 -27 26 -32 23 -6 -4 -7 8 -3 31 7 35 -6 51 -18
24 -3 -7 -4 -4 -3 7 2 11 -8 30 -21 43 -26 25 -47 29 -38 7 7 -19 -5 -19 -30
0 -10 8 -41 17 -67 21 -27 4 -44 10 -37 14 6 3 9 13 6 21 -15 49 -16 69 -1 69
29 0 15 25 -36 63 l-52 38 6 -36 c7 -44 -7 -85 -38 -107 -13 -10 -61 -27 -107
-39 -68 -18 -88 -28 -111 -55 -26 -31 -33 -34 -86 -34 -52 0 -60 3 -91 35 -36
37 -88 50 -76 19 11 -28 -12 -54 -49 -54 -18 0 -37 -4 -40 -10 -8 -12 -97 -1
-110 14 -8 9 -16 9 -34 0 -30 -15 -44 -9 -36 17 8 25 -23 26 -32 2 -4 -10 -13
-23 -21 -28 -19 -15 -44 -126 -31 -141 6 -7 6 -26 1 -52 -8 -35 -7 -41 14 -57
13 -10 24 -25 24 -34 0 -9 6 -25 13 -36 8 -11 17 -31 20 -43 5 -23 5 -23 -14
-6 -19 17 -19 16 -13 -17 8 -42 6 -39 32 -32 18 4 22 13 22 43 0 84 101 157
220 158 97 2 220 13 220 21 0 4 -16 5 -36 3 -27 -3 -35 -1 -32 9 2 7 13 16 24
19 10 3 19 12 19 20 0 17 68 26 103 13 l23 -9 -24 -35 -24 -35 84 -3 c47 -1
94 -6 106 -10 12 -5 32 -7 44 -5 15 3 26 -3 33 -16 6 -11 21 -20 35 -20 13 0
25 -5 27 -11 2 -6 14 -5 33 5 33 17 55 20 55 8 0 -5 12 -21 28 -38 53 -57 67
-110 36 -139 -11 -11 -23 -28 -27 -37 -3 -10 -16 -18 -27 -18 -11 0 -20 -7
-20 -15 0 -8 -4 -15 -10 -15 -5 0 -9 -10 -7 -22 1 -16 -4 -24 -18 -26 -11 -1
-25 -13 -30 -25 -7 -15 -17 -21 -32 -19 -13 2 -23 -2 -23 -8 0 -7 -8 -9 -20
-5 -15 5 -18 3 -14 -9 4 -10 -8 -21 -43 -37 -26 -12 -51 -26 -54 -31 -3 -5
-22 -6 -43 -2 -33 6 -37 9 -32 30 7 27 -5 32 -24 10 -6 -8 -17 -13 -25 -10 -7
3 -16 1 -20 -5 -3 -6 -11 -11 -18 -11 -8 0 -8 3 1 12 14 14 16 38 3 38 -5 0
-11 -9 -14 -21 -5 -20 -7 -20 -29 -5 -30 21 -45 20 -53 -4 -3 -11 -12 -20 -19
-20 -7 0 -22 -9 -34 -20 -18 -17 -23 -18 -35 -5 -13 12 -17 13 -27 0 -10 -12
-16 -10 -37 13 -17 18 -27 23 -30 15 -7 -21 -40 -15 -46 8 -5 17 -11 20 -31
15 -19 -5 -26 -2 -26 9 0 8 -5 15 -11 15 -6 0 -8 9 -3 23 6 21 6 22 -13 4 -20
-17 -21 -17 -27 0 -12 29 -17 85 -8 79 5 -3 4 10 -2 29 -11 34 -29 45 -41 26
-3 -5 -19 -9 -35 -9 -26 1 -30 5 -30 30 0 17 -4 27 -10 23 -5 -3 -10 -19 -10
-36 0 -16 -4 -29 -10 -29 -5 0 -10 5 -10 10 0 6 -6 10 -12 8 -16 -3 -58 32
-58 49 0 7 -6 13 -14 13 -14 0 -58 52 -69 84 -6 15 -10 16 -22 6 -12 -10 -15
-9 -15 9 0 11 -4 21 -8 21 -10 0 -61 93 -74 135 -42 132 -77 478 -71 695 2 80
13 206 24 280 11 74 22 203 25 285 2 83 7 169 9 192 6 56 70 244 105 310 16
29 31 66 35 83 4 16 11 32 16 35 4 3 16 21 25 40 9 19 20 35 25 35 5 0 9 8 9
19 0 22 96 121 119 122 9 0 39 13 66 28 52 29 83 31 208 15z m-696 -1576 c-3
-7 -5 -2 -5 12 0 14 2 19 5 13 2 -7 2 -19 0 -25z m-8 -75 c1 -7 -3 -13 -9 -13
-5 0 -10 15 -9 33 0 27 2 29 9 12 5 -11 9 -26 9 -32z m781 -277 c0 -3 -4 -8
-10 -11 -5 -3 -10 -1 -10 4 0 6 5 11 10 11 6 0 10 -2 10 -4z m922 -300 c17
-23 16 -24 -2 -29 -13 -3 -20 0 -20 8 0 7 -3 20 -6 29 -9 24 9 19 28 -8z
m-111 -52 c-9 -28 -9 -29 -10 -3 -1 14 2 29 6 32 11 12 13 2 4 -29z m484 -184
c31 -61 46 -106 52 -160 5 -50 2 -64 -17 -97 -25 -41 -119 -164 -133 -174 -5
-3 -16 -17 -25 -31 -109 -164 -163 -245 -170 -253 -31 -41 -72 -112 -121 -211
-17 -33 -40 -69 -51 -79 -11 -10 -20 -22 -20 -28 0 -10 -107 -175 -127 -195
-7 -7 -13 -19 -13 -26 0 -7 -12 -26 -26 -42 -14 -16 -40 -55 -57 -87 -42 -78
-57 -104 -86 -152 -28 -47 -56 -98 -118 -215 -25 -47 -51 -92 -59 -101 -8 -8
-14 -22 -14 -31 0 -8 -8 -26 -17 -39 -18 -24 -39 -64 -67 -129 -9 -19 -42 -84
-73 -145 -32 -60 -63 -123 -70 -140 -7 -16 -17 -37 -22 -45 -5 -8 -29 -54 -52
-103 -54 -111 -70 -127 -63 -60 13 125 25 278 28 375 2 58 7 120 11 137 5 24
3 31 -8 31 -8 0 -17 7 -21 15 -4 12 2 14 26 12 30 -2 32 -1 35 41 2 27 -3 52
-13 67 -17 26 -12 45 12 45 11 0 14 13 12 63 -4 122 5 407 13 407 16 0 9 18
-8 23 -15 4 -14 5 3 6 11 0 29 8 40 16 10 8 27 15 37 15 10 0 15 5 12 10 -3 6
-1 10 4 10 6 0 21 11 33 25 12 14 29 25 38 25 23 0 40 20 40 47 0 13 5 23 10
23 6 0 10 7 10 15 0 8 -4 15 -10 15 -5 0 -10 8 -10 19 0 10 -16 38 -35 62 -19
24 -35 48 -35 53 0 12 -31 46 -42 46 -4 0 -8 -9 -8 -19 0 -10 -6 -21 -14 -24
-19 -7 -38 16 -31 36 9 22 -53 29 -83 9 -20 -13 -25 -13 -33 -1 -6 10 -3 18
11 28 23 15 27 51 6 51 -34 0 -75 -23 -78 -43 -2 -12 -10 -23 -18 -23 -8 -1
-21 -2 -27 -3 -7 0 -13 -14 -13 -30 0 -17 -6 -31 -16 -35 -8 -3 -13 -10 -9
-15 3 -6 13 -7 23 -4 15 6 15 4 -2 -15 -17 -19 -18 -31 -10 -119 8 -108 8
-100 -2 -126 -6 -15 -2 -18 17 -17 38 3 42 1 29 -15 -7 -8 -21 -15 -30 -15
-27 0 -53 -56 -38 -80 13 -20 -3 -50 -27 -50 -19 0 -27 -69 -10 -87 23 -22 18
-43 -9 -43 -18 0 -25 -7 -29 -30 -4 -16 -18 -48 -33 -71 -18 -30 -23 -44 -15
-52 18 -18 13 -36 -8 -30 -26 7 -71 -54 -68 -92 1 -18 -3 -30 -11 -30 -12 0
-62 -77 -62 -96 0 -4 7 -6 15 -3 9 4 15 0 15 -9 0 -21 -20 -33 -30 -17 -8 14
-20 -9 -20 -41 0 -11 -7 -22 -15 -26 -18 -6 -45 -65 -45 -98 0 -12 -8 -37 -17
-56 -9 -18 -16 -49 -16 -68 1 -20 -7 -46 -19 -62 -16 -21 -20 -37 -15 -68 3
-26 0 -46 -9 -58 -16 -21 -19 -93 -4 -93 19 0 10 -32 -10 -37 -11 -3 -20 -11
-20 -18 0 -7 -3 -27 -6 -44 -5 -24 -3 -31 10 -31 9 0 16 -7 16 -15 0 -10 -9
-14 -25 -13 -18 2 -26 10 -31 33 -3 16 -13 40 -21 53 -8 13 -21 53 -28 90 -20
90 -19 419 0 526 8 44 12 83 10 86 -3 4 5 38 15 76 11 38 27 98 35 134 14 58
29 107 81 270 39 120 85 232 108 266 14 21 26 44 26 50 0 6 16 29 35 51 19 23
35 49 35 58 0 28 28 72 50 78 15 4 20 13 20 40 0 20 9 46 21 61 23 29 30 76
49 297 5 64 12 124 16 133 7 18 24 16 88 -15 22 -11 45 -19 51 -19 7 0 20 -9
29 -19 10 -10 38 -24 64 -31 26 -6 52 -16 59 -22 7 -5 16 -7 22 -4 20 13 117
-56 106 -75 -3 -4 3 -10 12 -13 33 -10 147 -24 183 -22 42 2 57 -4 39 -15 -31
-19 2 -19 40 0 22 12 46 21 52 21 7 0 20 6 28 14 9 7 43 28 76 46 33 17 62 35
65 39 3 4 32 22 65 40 33 18 67 38 75 45 8 7 42 28 75 46 33 19 63 39 68 46 4
7 21 15 38 19 17 4 33 14 36 23 3 10 37 47 75 83 37 36 68 70 68 76 0 5 11 15
24 21 13 6 28 24 34 41 13 38 -2 41 -20 4 -7 -14 -19 -29 -27 -31 -16 -5 25
58 46 71 7 4 13 17 13 27 0 26 22 71 33 67 4 -1 14 -14 22 -27z m-1380 -961
c0 -7 -8 -15 -17 -17 -18 -3 -25 18 -11 32 10 10 28 1 28 -15z m113 -26 c-2
-10 -13 -19 -26 -21 -17 -3 -22 2 -22 17 0 16 6 21 26 21 19 0 25 -5 22 -17z
m-82 -25 c4 -6 -1 -17 -11 -25 -24 -17 -34 -17 -42 3 -10 26 38 47 53 22z
m219 -19 c9 -27 -6 -42 -36 -37 -18 2 -25 10 -27 31 -3 24 0 27 27 27 21 0 31
-6 36 -21z m-102 -13 c23 -18 21 -32 -5 -40 -33 -8 -35 -8 -42 10 -6 16 9 44
23 44 3 0 14 -7 24 -14z m-195 -28 c-3 -7 -12 -14 -21 -16 -12 -2 -15 1 -11
12 7 19 38 22 32 4z m101 -12 c10 -12 8 -17 -9 -26 -26 -14 -46 0 -37 24 8 20
31 21 46 2z m-89 -46 c0 -11 -7 -20 -15 -20 -18 0 -19 12 -3 28 16 16 18 15
18 -8z m127 -20 c2 -31 -2 -40 -17 -45 -11 -4 -24 -3 -30 0 -16 10 -12 43 8
54 9 6 13 11 9 11 -13 0 3 20 16 20 8 0 13 -16 14 -40z m177 25 c3 -9 -1 -18
-10 -22 -20 -7 -38 18 -21 29 18 11 24 10 31 -7z m-84 -21 c0 -10 -7 -14 -22
-12 -32 5 -35 28 -4 28 17 0 26 -5 26 -16z m-186 -30 c26 -10 19 -41 -9 -47
-30 -5 -52 22 -33 41 14 14 20 14 42 6z m258 -26 c-7 -7 -12 -8 -12 -2 0 6 3
14 7 17 3 4 9 5 12 2 2 -3 -1 -11 -7 -17z m-67 -28 c-3 -5 -10 -10 -16 -10 -5
0 -9 5 -9 10 0 6 7 10 16 10 8 0 12 -4 9 -10z m-75 -30 c0 -13 -5 -18 -15 -14
-8 4 -15 12 -15 20 0 8 7 14 15 14 8 0 15 -9 15 -20z m-80 -20 c0 -21 -24 -27
-49 -11 -19 12 -4 31 25 31 17 0 24 -5 24 -20z m-72 -77 c2 -13 -5 -27 -19
-36 -19 -14 -21 -22 -16 -69 4 -41 1 -58 -12 -75 l-17 -21 -12 30 c-8 23 -8
35 1 49 6 10 15 19 18 19 3 0 5 23 2 51 -4 55 9 82 36 77 9 -2 17 -13 19 -25z
m79 -55 c-3 -8 -6 -5 -6 6 -1 11 2 17 5 13 3 -3 4 -12 1 -19z m-37 -37 c0 -19
-23 -35 -34 -24 -14 15 -5 43 14 43 13 0 20 -7 20 -19z m80 -37 c0 -8 -4 -12
-10 -9 -5 3 -10 10 -10 16 0 5 5 9 10 9 6 0 10 -7 10 -16z m-46 -41 c10 -25
-10 -39 -23 -15 -10 19 -6 32 10 32 4 0 10 -8 13 -17z m-60 -49 c4 -9 1 -23
-5 -31 -10 -11 -15 -11 -31 4 -18 16 -18 18 -2 30 23 17 31 16 38 -3z m-73
-84 c-4 -3 -8 -13 -8 -22 0 -13 6 -16 23 -12 16 4 25 0 33 -15 9 -16 7 -22
-10 -35 -30 -20 -59 -1 -59 38 0 17 -9 36 -22 48 l-23 20 28 23 c15 13 27 30
28 37 1 7 5 -7 10 -32 5 -24 5 -47 0 -50z m179 50 c0 -11 0 -23 1 -27 0 -4 -4
-9 -9 -11 -13 -4 -26 34 -17 48 10 17 25 11 25 -10z m-50 -60 c0 -28 -30 -38
-46 -15 -17 23 -9 35 22 35 17 0 24 -5 24 -20z m-203 -16 c8 -22 -15 -44 -26
-25 -10 16 -4 41 10 41 5 0 12 -7 16 -16z m244 -55 c9 -17 8 -25 -4 -36 -19
-19 -37 -9 -37 21 0 40 23 49 41 15z m-195 -13 c8 -8 14 -23 14 -33 0 -18 -9
-20 -62 -14 -12 1 -9 36 4 49 16 16 26 15 44 -2z m114 -36 c11 -7 12 -14 4
-27 -16 -25 -28 -26 -42 -2 -12 18 -12 23 0 30 17 11 20 11 38 -1z m-258 -32
c-7 -7 -12 -8 -12 -2 0 6 3 14 7 17 3 4 9 5 12 2 2 -3 -1 -11 -7 -17z m66 -14
c-5 -26 -38 -31 -38 -7 0 24 21 46 33 34 5 -5 7 -17 5 -27z m114 -10 c11 -22
10 -28 -7 -40 -27 -20 -42 -17 -48 8 -6 22 16 58 35 58 5 0 14 -12 20 -26z
m-168 -47 c-7 -18 -24 -23 -24 -8 0 22 13 42 22 33 5 -5 6 -16 2 -25z m296 12
c9 -15 8 -24 -1 -35 -17 -20 -37 -17 -50 8 -10 18 -8 24 7 35 24 18 31 17 44
-8z m-205 -30 c0 -17 -6 -24 -20 -24 -23 0 -33 34 -13 46 20 13 33 5 33 -22z
m35 -9 c0 -5 -5 -10 -11 -10 -5 0 -7 5 -4 10 3 6 8 10 11 10 2 0 4 -4 4 -10z
m129 -48 c0 -9 3 -32 7 -51 5 -26 3 -37 -11 -47 -18 -14 -13 -34 10 -34 11 0
30 -29 23 -35 -2 -1 -18 2 -35 7 -32 8 -38 19 -33 63 2 25 -17 8 -22 -19 -1
-11 -18 -26 -36 -33 -19 -8 -31 -10 -28 -5 3 5 -4 18 -14 30 -24 25 -25 33 -5
26 23 -9 18 8 -10 35 -33 30 -32 47 4 66 16 8 31 23 34 32 2 10 4 1 4 -20 1
-47 10 -56 43 -46 22 6 23 7 4 8 -15 1 -24 10 -28 27 -4 15 -6 27 -4 29 27 21
44 22 70 4 14 -11 27 -27 27 -37z m-299 29 c0 -12 -20 -25 -27 -18 -7 7 6 27
18 27 5 0 9 -4 9 -9z m67 -17 c3 -8 -1 -22 -10 -31 -13 -14 -16 -13 -22 6 -11
35 19 59 32 25z m-63 -53 c8 -12 -3 -41 -15 -41 -5 0 -9 11 -9 25 0 25 14 34
24 16z m100 -17 c13 -35 7 -54 -19 -54 -33 0 -42 25 -20 50 22 24 31 25 39 4z
m-149 -55 c0 -7 -8 -15 -17 -17 -18 -3 -25 18 -11 32 10 10 28 1 28 -15z m85
-18 c0 -22 -25 -45 -40 -36 -11 7 -14 38 -3 48 14 15 43 7 43 -12z m108 -22
c11 -18 11 -23 -5 -35 -22 -16 -33 -14 -47 10 -9 13 -7 20 8 32 26 18 29 18
44 -7z m-248 -8 c0 -21 -26 -36 -36 -20 -9 15 3 39 21 39 8 0 15 -9 15 -19z
m80 -32 c0 -10 -2 -19 -4 -19 -2 0 -11 -3 -19 -6 -22 -8 -30 26 -10 41 22 16
33 10 33 -16z m290 2 c0 -52 -24 -65 -56 -30 -18 20 -18 21 1 35 27 20 55 18
55 -5z m-195 -22 c7 -21 -7 -39 -31 -39 -18 0 -26 31 -13 46 17 20 37 17 44
-7z m-165 -34 c0 -26 -14 -33 -25 -15 -9 14 1 40 15 40 5 0 10 -11 10 -25z
m280 2 c0 -25 -17 -47 -37 -47 -19 0 -29 50 -12 61 26 17 49 10 49 -14z m-186
-24 c6 -15 -8 -32 -25 -33 -10 0 -20 31 -13 41 9 15 31 10 38 -8z m271 7 c3
-5 3 -21 -1 -35 -5 -20 -9 -23 -20 -14 -22 18 -17 59 7 59 4 0 10 -4 14 -10z
m-419 -49 c-13 -20 -26 -11 -26 16 0 25 1 26 16 11 9 -9 13 -21 10 -27z m259
18 c5 -14 1 -25 -12 -34 -15 -11 -21 -11 -36 2 -16 15 -16 17 -1 35 22 24 41
23 49 -3z m-182 -52 c-16 -17 -18 -17 -21 -3 -2 10 -1 24 2 33 5 12 9 13 21 3
14 -11 14 -15 -2 -33z m290 19 c26 -20 21 -42 -9 -41 -31 2 -54 33 -33 46 18
11 21 11 42 -5z m-173 -42 c0 -15 -35 -28 -50 -19 -16 10 -12 43 8 54 18 11
42 -9 42 -35z m-167 -30 c-6 -17 -30 -18 -36 -1 -2 6 0 21 6 31 9 19 10 19 23
2 7 -10 10 -24 7 -32z m262 15 c7 -20 -7 -38 -27 -39 -14 0 -20 43 -7 51 21
13 27 11 34 -12z m185 0 c0 -11 -4 -17 -10 -14 -5 3 -10 13 -10 21 0 8 5 14
10 14 6 0 10 -9 10 -21z m-352 -31 c-4 -27 -33 -36 -42 -13 -8 22 1 35 25 35
15 0 20 -6 17 -22z m272 3 c0 -51 -35 -71 -46 -27 -7 31 1 46 27 46 12 0 19
-7 19 -19z m-420 -27 c0 -15 -6 -24 -15 -24 -21 0 -30 27 -15 45 16 19 30 10
30 -21z m250 -15 c0 -10 -30 -20 -41 -13 -13 7 -11 28 3 42 10 10 15 9 25 -5
7 -9 13 -20 13 -24z m205 11 c3 -5 -1 -10 -9 -10 -9 0 -16 5 -16 10 0 6 4 10
9 10 6 0 13 -4 16 -10z m-372 -37 c-7 -17 -19 -17 -26 1 -7 18 14 40 24 24 4
-6 5 -17 2 -25z m274 11 c4 -11 -1 -22 -12 -30 -26 -19 -32 -18 -38 8 -10 35
37 55 50 22z m-183 -10 c7 -19 -1 -54 -14 -54 -12 0 -21 31 -15 51 8 23 21 24
29 3z m-144 -29 c14 -16 6 -35 -16 -35 -8 0 -14 10 -14 25 0 28 12 32 30 10z
m460 -10 c0 -28 -21 -33 -39 -11 -10 11 -8 17 6 25 27 16 33 13 33 -14z m-203
-1 c3 -8 -2 -23 -11 -32 -16 -16 -18 -16 -31 2 -11 14 -12 23 -4 33 15 18 38
16 46 -3z m-167 -28 c0 -17 -24 -38 -33 -29 -15 15 -6 43 13 43 11 0 20 -6 20
-14z m264 -2 c6 -17 -9 -54 -23 -54 -11 0 -23 48 -16 60 9 15 32 12 39 -6z
m-406 -30 c-4 -25 -32 -24 -36 0 -4 21 18 40 31 27 5 -5 7 -17 5 -27z m237 -5
c0 -15 -7 -25 -18 -27 -22 -4 -33 24 -17 43 18 21 35 13 35 -16z m215 1 c0 -5
-2 -10 -4 -10 -3 0 -8 5 -11 10 -3 6 -1 10 4 10 6 0 11 -4 11 -10z m-365 -10
c4 -6 1 -18 -6 -26 -11 -14 -13 -14 -21 0 -15 26 12 51 27 26z m249 -17 c9
-24 -9 -39 -29 -23 -12 10 -13 16 -4 26 15 19 25 18 33 -3z m-164 -27 c0 -31
-14 -40 -30 -21 -15 18 -6 45 15 45 9 0 15 -9 15 -24z m327 -30 c-4 -9 -16
-16 -27 -16 -15 0 -20 7 -20 24 0 13 6 26 13 29 18 7 41 -19 34 -37z m-467 3
c0 -20 -15 -26 -25 -9 -9 15 3 43 15 35 5 -3 10 -15 10 -26z m241 5 c10 -13
10 -17 -2 -25 -18 -12 -26 -11 -34 1 -8 13 1 40 13 40 5 0 15 -7 23 -16z
m-166 -44 c-6 -9 -9 -9 -16 1 -10 17 0 34 13 21 6 -6 7 -16 3 -22z m273 3 c-2
-20 -9 -28 -23 -28 -23 0 -33 34 -13 46 26 17 39 10 36 -18z m-403 -8 c0 -10
-6 -20 -12 -22 -8 -3 -13 5 -13 22 0 17 5 25 13 23 6 -3 12 -13 12 -23z m230
-5 c8 -24 -1 -40 -21 -40 -9 0 -14 11 -14 30 0 35 25 42 35 10z m-147 -27 c-5
-25 -28 -28 -28 -4 0 12 6 21 16 21 9 0 14 -7 12 -17z m250 -19 c-4 -24 -24
-29 -32 -8 -8 20 13 49 27 35 5 -5 7 -17 5 -27z m-160 -16 c-4 -27 -33 -36
-42 -13 -8 22 1 35 25 35 15 0 20 -6 17 -22z m-138 -29 c0 -10 -4 -19 -9 -19
-12 0 -23 29 -15 41 8 14 24 0 24 -22z m234 -20 c-8 -14 -24 -11 -30 6 -4 8 0
22 7 31 12 14 14 13 21 -6 4 -12 6 -26 2 -31z m-151 4 c9 -9 -13 -34 -24 -27
-14 8 -11 34 4 34 8 0 17 -3 20 -7z m264 -9 c7 -19 -20 -49 -36 -40 -12 8 -15
39 -4 49 12 12 33 7 40 -9z m-407 -10 c0 -8 -5 -12 -10 -9 -6 4 -8 11 -5 16 9
14 15 11 15 -7z m236 -9 c4 -8 3 -23 0 -32 -6 -15 -8 -15 -23 -1 -16 17 -12
48 7 48 6 0 13 -7 16 -15z m224 -10 c0 -8 -4 -17 -10 -20 -6 -4 -10 5 -10 20
0 15 4 24 10 20 6 -3 10 -12 10 -20z m-382 -34 c-15 -5 -21 7 -13 26 7 17 8
17 15 -2 4 -11 3 -22 -2 -24z m262 -2 c0 -20 -24 -26 -35 -9 -8 13 14 42 26
34 5 -3 9 -14 9 -25z m-157 -13 c5 -14 -10 -36 -25 -36 -4 0 -8 11 -8 25 0 27
24 35 33 11z m-148 -15 c3 -5 1 -12 -5 -16 -5 -3 -10 1 -10 9 0 18 6 21 15 7z
m253 -18 c4 -25 -22 -37 -38 -17 -10 11 -10 17 0 29 17 20 34 14 38 -12z
m-165 -17 c6 -16 -2 -28 -14 -20 -12 7 -11 34 0 34 5 0 11 -6 14 -14z m242 -6
c-3 -5 -11 -10 -16 -10 -6 0 -7 5 -4 10 3 6 11 10 16 10 6 0 7 -4 4 -10z
m-143 -54 c-9 -21 -10 -20 -23 7 -11 24 -11 30 1 37 21 13 35 -16 22 -44z
m-148 9 c3 -8 1 -15 -4 -15 -6 0 -10 7 -10 15 0 8 2 15 4 15 2 0 6 -7 10 -15z
m91 -52 c-7 -17 -8 -17 -15 2 -9 24 -2 41 12 27 6 -6 7 -19 3 -29z m-187 -365
c7 -7 12 -22 12 -35 0 -21 -2 -22 -20 -11 -11 7 -20 23 -20 35 0 25 10 29 28
11z m-173 -958 c-1 -11 -4 -23 -8 -26 -4 -4 -7 -17 -7 -30 0 -13 -8 -24 -20
-27 -13 -3 -18 -10 -14 -21 3 -9 1 -16 -5 -16 -16 0 -13 72 4 94 15 20 15 20
16 0 0 -13 5 -10 15 14 16 37 21 40 19 12z"/>
<path d="M4605 6480 c-4 -6 -72 -10 -170 -10 l-164 0 -20 -26 c-12 -15 -21
-21 -21 -14 0 10 -3 10 -14 1 -11 -9 -20 -10 -35 -2 -11 6 -26 10 -33 9 -17
-4 -37 -29 -38 -48 0 -8 -9 -21 -20 -28 -12 -7 -19 -16 -16 -20 2 -4 -2 -32
-10 -62 -19 -73 -18 -83 6 -75 21 7 24 -2 22 -71 -1 -26 4 -34 28 -44 17 -7
30 -16 30 -21 0 -5 5 -9 11 -9 6 0 8 9 3 23 -9 29 -12 44 -7 35 12 -21 113 2
113 26 0 11 83 66 99 66 5 0 12 -19 15 -42 l7 -43 103 0 c92 0 107 -2 128 -21
29 -27 93 -22 109 7 5 11 14 19 20 19 6 0 24 9 39 20 26 19 28 23 18 51 -9 27
-14 30 -37 23 -34 -10 -99 -6 -123 7 -11 6 -68 14 -126 19 -156 13 -204 32
-151 61 27 14 265 5 285 -12 8 -7 14 -7 19 1 5 8 10 8 20 0 7 -6 29 -11 48
-12 27 -1 34 -5 30 -17 -4 -14 -3 -15 9 0 7 8 21 18 31 22 15 6 16 10 6 29 -7
13 -13 33 -14 45 -1 32 -29 58 -101 92 -69 33 -89 37 -99 21z m-175 -270 c0
-5 -4 -10 -10 -10 -5 0 -10 5 -10 10 0 6 5 10 10 10 6 0 10 -4 10 -10z"/>
<path d="M3280 6460 c0 -5 -6 -10 -13 -10 -7 0 -26 -13 -41 -29 -24 -25 -26
-34 -20 -66 6 -32 9 -36 28 -30 23 8 30 8 99 -1 31 -4 53 -2 63 7 11 9 18 9
26 1 7 -7 42 -12 79 -12 44 0 70 -5 78 -14 18 -21 -9 -36 -91 -50 -101 -18
-148 -34 -183 -61 l-29 -24 25 -23 c20 -19 37 -23 86 -24 59 0 62 1 65 25 4
32 21 31 28 -1 5 -19 15 -25 68 -33 35 -5 62 -14 60 -20 -5 -17 30 -17 54 -1
12 9 42 16 65 16 24 0 43 2 43 4 0 2 -7 17 -15 32 -15 29 -15 29 16 32 28 3
30 5 23 35 -3 18 -12 36 -18 40 -6 4 -18 12 -26 17 -13 9 -12 12 5 26 11 8 32
18 48 21 33 7 34 23 4 51 -29 27 -61 28 -89 2 -29 -27 -35 -25 -42 13 -11 51
-58 75 -166 83 -76 6 -97 4 -131 -12 -38 -17 -42 -17 -50 -1 -11 18 -49 24
-49 7z m384 -289 c9 -14 -4 -41 -20 -41 -8 0 -14 8 -14 18 0 29 22 43 34 23z
m76 -47 c0 -2 -9 -4 -21 -4 -11 0 -18 4 -14 10 5 8 35 3 35 -6z"/>
<path d="M4560 6040 c-21 -7 -21 -8 -5 -9 11 0 27 4 35 9 18 11 5 11 -30 0z"/>
<path d="M4400 6015 c16 -9 41 -12 70 -9 73 8 65 19 -18 21 -71 3 -75 2 -52
-12z"/>
<path d="M3500 5559 c0 -5 5 -7 10 -4 6 3 10 8 10 11 0 2 -4 4 -10 4 -5 0 -10
-5 -10 -11z"/>
<path d="M4850 5310 c0 -5 5 -10 10 -10 6 0 10 5 10 10 0 6 -4 10 -10 10 -5 0
-10 -4 -10 -10z"/>
<path d="M3880 5088 c0 -4 -17 -4 -37 -1 -32 5 -36 4 -30 -11 4 -10 10 -28 13
-40 3 -12 18 -27 34 -33 27 -10 29 -14 23 -48 -6 -36 -6 -37 26 -33 19 2 35
-3 40 -11 6 -9 11 -10 15 -3 4 6 13 9 20 6 8 -3 21 7 32 25 10 17 26 31 37 31
16 0 17 6 11 50 -4 28 -3 50 2 49 20 -3 34 2 34 12 0 6 -9 9 -20 6 -11 -3 -23
-1 -26 5 -7 11 -174 7 -174 -4z"/>
<path d="M3460 5004 c0 -9 5 -14 12 -12 18 6 21 28 4 28 -9 0 -16 -7 -16 -16z"/>
<path d="M3553 4903 c-14 -5 -18 -23 -5 -23 5 0 17 7 28 15 14 11 15 14 4 14
-8 0 -21 -3 -27 -6z"/>
<path d="M5290 5460 c0 -5 4 -10 9 -10 6 0 13 5 16 10 3 6 -1 10 -9 10 -9 0
-16 -4 -16 -10z"/>
</g>
</svg>
